<?xml version="1.0" encoding="UTF-8" standalone="no"?>
<!-- Created with Inkscape (http://www.inkscape.org/) -->

<svg
   width="160mm"
   height="115mm"
   viewBox="0 0 160 115"
   version="1.1"
   id="svg5"
   inkscape:version="1.2.1 (9c6d41e, 2022-07-14)"
   sodipodi:docname="01 Неустойчивые-системы.svg"
   inkscape:export-filename="01 Неустойчивые-системы.png"
   inkscape:export-xdpi="299"
   inkscape:export-ydpi="299"
   xmlns:inkscape="http://www.inkscape.org/namespaces/inkscape"
   xmlns:sodipodi="http://sodipodi.sourceforge.net/DTD/sodipodi-0.dtd"
   xmlns="http://www.w3.org/2000/svg"
   xmlns:svg="http://www.w3.org/2000/svg">
  <sodipodi:namedview
     id="namedview7"
     pagecolor="#ffffff"
     bordercolor="#666666"
     borderopacity="1.0"
     inkscape:showpageshadow="2"
     inkscape:pageopacity="0.0"
     inkscape:pagecheckerboard="0"
     inkscape:deskcolor="#d1d1d1"
     inkscape:document-units="mm"
     showgrid="true"
     inkscape:zoom="1.4201731"
     inkscape:cx="1119.9339"
     inkscape:cy="235.53468"
     inkscape:window-width="1918"
     inkscape:window-height="1038"
     inkscape:window-x="0"
     inkscape:window-y="20"
     inkscape:window-maximized="1"
     inkscape:current-layer="layer1"
     showguides="true">
    <inkscape:grid
       type="xygrid"
       id="grid837"
       units="mm"
       spacingx="1"
       spacingy="1"
       originx="0"
       originy="0" />
    <inkscape:page
       x="0"
       y="0"
       width="160"
       height="115"
       id="page4347" />
    <inkscape:page
       x="170"
       y="0"
       width="69.999992"
       height="115"
       id="page4349" />
    <inkscape:page
       x="249.99998"
       y="0"
       width="120.00001"
       height="115"
       id="page541"
       inkscape:export-filename="01 Неустойчивые-системы-P3.png"
       inkscape:export-xdpi="299"
       inkscape:export-ydpi="299" />
  </sodipodi:namedview>
  <defs
     id="defs2">
    <marker
       style="overflow:visible"
       id="Arrow1L-6-0-28-2"
       refX="0"
       refY="0"
       orient="auto-start-reverse"
       inkscape:stockid="Arrow1L"
       markerWidth="8.75"
       markerHeight="5"
       viewBox="0 0 8.75 5"
       inkscape:isstock="true"
       inkscape:collect="always"
       preserveAspectRatio="xMidYMid">
      <path
         style="fill:context-stroke;fill-rule:evenodd;stroke:none"
         d="M 0,0 5,-5 -12.5,0 5,5 Z"
         id="arrow1L-2-9-9-7"
         transform="scale(-0.5)" />
    </marker>
    <marker
       style="overflow:visible"
       id="Arrow1L-6-0-28-2-6"
       refX="0"
       refY="0"
       orient="auto-start-reverse"
       inkscape:stockid="Arrow1L"
       markerWidth="8.75"
       markerHeight="5"
       viewBox="0 0 8.75 5"
       inkscape:isstock="true"
       inkscape:collect="always"
       preserveAspectRatio="xMidYMid">
      <path
         style="fill:context-stroke;fill-rule:evenodd;stroke:none"
         d="M 0,0 5,-5 -12.5,0 5,5 Z"
         id="arrow1L-2-9-9-7-7"
         transform="scale(-0.5)" />
    </marker>
    <marker
       style="overflow:visible"
       id="Arrow1L-6-0-28-2-6-3"
       refX="0"
       refY="0"
       orient="auto-start-reverse"
       inkscape:stockid="Arrow1L"
       markerWidth="8.75"
       markerHeight="5"
       viewBox="0 0 8.75 5"
       inkscape:isstock="true"
       inkscape:collect="always"
       preserveAspectRatio="xMidYMid">
      <path
         style="fill:context-stroke;fill-rule:evenodd;stroke:none"
         d="M 0,0 5,-5 -12.5,0 5,5 Z"
         id="arrow1L-2-9-9-7-7-6"
         transform="scale(-0.5)" />
    </marker>
  </defs>
  <g
     inkscape:label="Слой 1"
     inkscape:groupmode="layer"
     id="layer1">
    <rect
       style="fill:#ffd5d5;fill-opacity:1;stroke:none;stroke-width:0.2;stroke-linecap:round;stroke-linejoin:round;stroke-dasharray:0.799999;stop-color:#000000"
       id="rect1451"
       width="50"
       height="75"
       x="305"
       y="20" />
    <rect
       style="fill:#e5ffd5;fill-opacity:1;stroke:none;stroke-width:0.2;stroke-linecap:round;stroke-linejoin:round;stroke-dasharray:0.799999;stop-color:#000000"
       id="rect1449"
       width="50"
       height="75"
       x="255"
       y="20" />
    <path
       style="font-variation-settings:normal;opacity:1;vector-effect:none;fill:none;fill-opacity:1;stroke:#008000;stroke-width:0.4;stroke-linecap:round;stroke-linejoin:round;stroke-miterlimit:4;stroke-dasharray:1.6;stroke-dashoffset:0;stroke-opacity:1;-inkscape-stroke:none;stop-color:#000000;stop-opacity:1"
       d="m 44.999999,59.999998 c 0,0 6.358087,-6.581483 10.999999,-9.999998 C 60.64191,46.581485 67.648928,42.814287 72.999999,39.999999 78.35107,37.185711 81.846072,35.403463 88,33 c 6.153928,-2.403463 22,-7 22,-7"
       id="path3333"
       sodipodi:nodetypes="czzzc" />
    <path
       style="fill:none;stroke:#000000;stroke-width:0.600001;stroke-linecap:round;stroke-linejoin:round;marker-end:url(#Arrow1L-6-0-28-2)"
       d="M 45,110 V 15"
       id="path878-9"
       sodipodi:nodetypes="cc" />
    <path
       style="fill:none;stroke:#000000;stroke-width:0.600001;stroke-linecap:round;stroke-linejoin:round;marker-end:url(#Arrow1L-6-0-28-2)"
       d="M 5,110 H 150"
       id="path880-3"
       sodipodi:nodetypes="cc" />
    <text
       xml:space="preserve"
       style="font-size:7.05556px;line-height:7.25714px;font-family:sans-serif;text-align:center;letter-spacing:0px;word-spacing:0px;text-anchor:middle;fill:#0000ff;fill-opacity:1;stroke-width:0.264583"
       x="41"
       y="10"
       id="text884-6"><tspan
         sodipodi:role="line"
         style="font-size:7.05556px;text-align:center;text-anchor:middle;fill:#0000ff;fill-opacity:1;stroke-width:0.264583"
         x="41"
         y="10"
         id="tspan882-0">x</tspan></text>
    <text
       xml:space="preserve"
       style="font-size:7.05556px;line-height:7.25714px;font-family:sans-serif;text-align:center;letter-spacing:0px;word-spacing:0px;text-anchor:middle;fill:#000000;fill-opacity:1;stroke-width:0.264583"
       x="155"
       y="110"
       id="text888-6"><tspan
         sodipodi:role="line"
         style="font-size:7.05556px;text-align:center;text-anchor:middle;fill:#000000;fill-opacity:1;stroke-width:0.264583"
         x="155"
         y="110"
         id="tspan886-2">t</tspan></text>
    <text
       xml:space="preserve"
       style="font-size:7.05556px;line-height:7.25714px;font-family:sans-serif;text-align:center;letter-spacing:0px;word-spacing:0px;text-anchor:middle;fill:#008000;fill-opacity:1;stroke-width:0.264583"
       x="49"
       y="10"
       id="text1147"><tspan
         sodipodi:role="line"
         style="font-size:7.05556px;text-align:center;text-anchor:middle;fill:#008000;fill-opacity:1;stroke-width:0.264583"
         x="49"
         y="10"
         id="tspan1145">y</tspan></text>
    <path
       style="fill:none;stroke:#008000;stroke-width:1;stroke-linecap:round;stroke-linejoin:round;stroke-dasharray:none;stop-color:#000000"
       d="M 15,59.999998 H 44.999999"
       id="path1255" />
    <path
       style="fill:none;stroke:#008000;stroke-width:0.4;stroke-linecap:round;stroke-linejoin:round;stroke-dasharray:1.6;stroke-dashoffset:0;stop-color:#000000"
       d="M 44.999999,59.999998 H 145"
       id="path1365" />
    <path
       style="fill:none;stroke:#0000ff;stroke-width:1;stroke-linecap:round;stroke-linejoin:round;stroke-dasharray:none;stroke-dashoffset:0;stroke-opacity:1;stop-color:#000000"
       d="M 15,110 H 44.999999 V 94.999999 H 145"
       id="path1367" />
    <path
       style="fill:none;stroke:#008000;stroke-width:1;stroke-linecap:round;stroke-linejoin:round;stroke-dasharray:none;stroke-dashoffset:0;stroke-opacity:1;stop-color:#000000"
       d="m 44.999999,59.999998 c 0,0 3.017423,-2.700656 7,-4.999998 C 55.982576,52.700658 60,51.999999 62,51.999999 c 2,0 5.002933,2.758575 8,4.000001 2.997067,1.241426 4.827537,2.175324 9.999998,3 C 85.172459,59.824676 100,59.999998 100,59.999998"
       id="path1837"
       sodipodi:nodetypes="czzzzc" />
    <path
       style="fill:none;stroke:#ff6600;stroke-width:1;stroke-linecap:round;stroke-linejoin:round;stroke-dasharray:none;stroke-dashoffset:0;stroke-opacity:1;stop-color:#000000"
       d="m 44.999999,59.999998 c 0,0 4.31052,-2.854121 7,-4.999998 2.68948,-2.145877 5.965647,-4.040655 9,-7.999999 3.034353,-3.959344 6.205011,-10.768441 8,-16.000003 C 70.794988,25.768436 71.999998,16 71.999998,16"
       id="path2026"
       sodipodi:nodetypes="czzzc" />
    <path
       style="fill:none;stroke:#000000;stroke-width:0.600001;stroke-linecap:round;stroke-linejoin:round;marker-end:url(#Arrow1L-6-0-28-2-6)"
       d="M 190,110 V 15"
       id="path878-9-5"
       sodipodi:nodetypes="cc" />
    <path
       style="fill:none;stroke:#000000;stroke-width:0.600001;stroke-linecap:round;stroke-linejoin:round;marker-end:url(#Arrow1L-6-0-28-2-6)"
       d="m 185,85 h 30"
       id="path880-3-3"
       sodipodi:nodetypes="cc" />
    <path
       style="fill:none;stroke:#ff0000;stroke-width:0.600001;stroke-linecap:round;stroke-linejoin:round;marker-end:url(#Arrow1L-6-0-28-2-6-3);stroke-opacity:1"
       d="m 305,95 0,-80"
       id="path878-9-5-7"
       sodipodi:nodetypes="cc" />
    <text
       xml:space="preserve"
       style="font-size:7.05556px;line-height:7.25714px;font-family:sans-serif;text-align:center;letter-spacing:0px;word-spacing:0px;text-anchor:middle;fill:#0000ff;fill-opacity:1;stroke-width:0.264583"
       x="186"
       y="10"
       id="text884-6-5"><tspan
         sodipodi:role="line"
         style="font-size:7.05556px;text-align:center;text-anchor:middle;fill:#0000ff;fill-opacity:1;stroke-width:0.264583"
         x="186"
         y="10"
         id="tspan882-0-6">k</tspan></text>
    <circle
       style="font-variation-settings:normal;fill:#ff00ff;fill-opacity:1;stroke:#000000;stroke-width:0.6;stroke-linecap:round;stroke-linejoin:round;stroke-miterlimit:4;stroke-dasharray:none;stroke-dashoffset:0;stroke-opacity:1;stop-color:#000000"
       id="path3705"
       cx="190"
       cy="50"
       r="2" />
    <circle
       style="font-variation-settings:normal;fill:#ff0000;fill-opacity:1;stroke:#000000;stroke-width:0.6;stroke-linecap:round;stroke-linejoin:round;stroke-miterlimit:4;stroke-dasharray:none;stroke-dashoffset:0;stroke-opacity:1;stop-color:#000000"
       id="circle3914"
       cx="190"
       cy="30"
       r="2" />
    <circle
       style="font-variation-settings:normal;fill:#00ff00;fill-opacity:1;stroke:#000000;stroke-width:0.6;stroke-linecap:round;stroke-linejoin:round;stroke-miterlimit:4;stroke-dasharray:none;stroke-dashoffset:0;stroke-opacity:1;stop-color:#000000"
       id="circle3916"
       cx="190"
       cy="70"
       r="2" />
    <path
       style="fill:none;stroke:#800000;stroke-width:1;stroke-linecap:round;stroke-linejoin:round;stroke-dasharray:none;stroke-dashoffset:0;stroke-opacity:1;stop-color:#000000"
       d="m 44.999999,59.999998 c 0,0 4.079385,-3.773567 7,-4.999998 2.920615,-1.226431 5.351925,-1.199285 7.839534,0.701559 2.487608,1.900844 3.31681,6.678374 4.752725,9.441258 1.435915,2.762884 3.48642,4.857182 6.407742,4.857182 2.921322,0 6.06242,-5.062421 8.999998,-7.999999 2.937578,-2.937578 6.583635,-5.000001 10.000001,-5.000001 3.416366,0 5.859175,2.394256 8.62053,3.676973 C 101.38188,61.959688 103.56964,62 107,62 c 3.43036,0 9,-2.000002 9,-2.000002"
       id="path2136"
       sodipodi:nodetypes="czzzzzzzzc" />
    <path
       style="fill:none;stroke:#00ff00;stroke-width:1;stroke-linecap:round;stroke-linejoin:round;stroke-dasharray:none;stroke-dashoffset:0;stroke-opacity:1;stop-color:#000000"
       d="m 44.999999,59.999998 c 0,0 5.184432,-3.785738 9.000001,-5.999998 3.815569,-2.21426 7.856872,-4.408574 13.999998,-6.999999 6.143126,-2.591425 15.971777,-6.046434 23.000001,-8.000003 7.028224,-1.953569 19.000001,-4 19.000001,-4"
       id="path2192"
       sodipodi:nodetypes="czzzc" />
    <path
       style="fill:none;stroke:#ff0000;stroke-width:1;stroke-linecap:round;stroke-linejoin:round;stroke-dasharray:none;stroke-dashoffset:0;stroke-opacity:1;stop-color:#000000"
       d="m 44.999999,59.999998 c 0,0 4.795984,-4.999998 7,-4.999998 2.204016,0 6.342677,4.027286 7.999999,7 1.657322,2.972714 3.041584,7.999999 6.000001,7.999999 2.958417,0 5.753466,-1.830208 8,-5 2.246534,-3.169792 6.754501,-12.039001 9.999999,-16 C 87.245496,45.039 91.372445,42 94.999999,42 98.627553,42 105.5638,48.074526 109,52.999999 c 3.4362,4.925473 5.90377,19.92311 8.9908,24.95997 3.08702,5.03686 8.18533,8.65805 14.0092,6.040029 5.82387,-2.618021 12,-22.999999 12,-22.999999"
       id="path2302"
       sodipodi:nodetypes="czzzzzzzzzc" />
    <text
       xml:space="preserve"
       style="font-size:4.93889px;line-height:5.08px;font-family:sans-serif;text-align:center;letter-spacing:0px;word-spacing:0px;text-anchor:middle;fill:#ff6600;fill-opacity:1;stroke-width:0.264583"
       x="69.703842"
       y="9.6622181"
       id="text2360"><tspan
         sodipodi:role="line"
         style="font-size:4.93889px;text-align:center;text-anchor:middle;fill:#ff6600;fill-opacity:1;stroke-width:0.264583"
         x="69.703842"
         y="9.6622181"
         id="tspan2358">неверное</tspan><tspan
         sodipodi:role="line"
         style="font-size:4.93889px;text-align:center;text-anchor:middle;fill:#ff6600;fill-opacity:1;stroke-width:0.264583"
         x="69.703842"
         y="14.742218"
         id="tspan3227">направление</tspan></text>
    <text
       xml:space="preserve"
       style="font-size:4.93889px;line-height:5.08px;font-family:sans-serif;text-align:center;letter-spacing:0px;word-spacing:0px;text-anchor:middle;fill:#00ff00;fill-opacity:1;stroke-width:0.264583"
       x="90.202644"
       y="28.452724"
       id="text2414"><tspan
         sodipodi:role="line"
         style="font-size:4.93889px;text-align:center;text-anchor:middle;fill:#00ff00;fill-opacity:1;stroke-width:0.264583"
         x="90.202644"
         y="28.452724"
         id="tspan2412">неустойчиво</tspan><tspan
         sodipodi:role="line"
         style="font-size:4.93889px;text-align:center;text-anchor:middle;fill:#00ff00;fill-opacity:1;stroke-width:0.264583"
         x="90.202644"
         y="33.532722"
         id="tspan2422">слабо</tspan></text>
    <text
       xml:space="preserve"
       style="font-size:4.93889px;line-height:5.08px;font-family:sans-serif;text-align:center;letter-spacing:0px;word-spacing:0px;text-anchor:middle;fill:#ff0000;fill-opacity:1;stroke-width:0.264583"
       x="102.64091"
       y="86.247635"
       id="text2418"><tspan
         sodipodi:role="line"
         style="font-size:4.93889px;text-align:center;text-anchor:middle;fill:#ff0000;fill-opacity:1;stroke-width:0.264583"
         x="102.64091"
         y="86.247635"
         id="tspan2416">неустойчиво</tspan><tspan
         sodipodi:role="line"
         style="font-size:4.93889px;text-align:center;text-anchor:middle;fill:#ff0000;fill-opacity:1;stroke-width:0.264583"
         x="102.64091"
         y="91.327637"
         id="tspan2420">сильно</tspan></text>
    <text
       xml:space="preserve"
       style="font-size:4.93889px;line-height:5.08px;font-family:sans-serif;text-align:center;letter-spacing:0px;word-spacing:0px;text-anchor:middle;fill:#800000;fill-opacity:1;stroke-width:0.264583"
       x="129.46294"
       y="52.128609"
       id="text2460"><tspan
         sodipodi:role="line"
         style="font-size:4.93889px;text-align:center;text-anchor:middle;fill:#800000;fill-opacity:1;stroke-width:0.264583"
         x="129.46294"
         y="52.128609"
         id="tspan2456">устойчиво</tspan><tspan
         sodipodi:role="line"
         style="font-size:4.93889px;text-align:center;text-anchor:middle;fill:#800000;fill-opacity:1;stroke-width:0.264583"
         x="129.46294"
         y="57.208607"
         id="tspan2458">сильно</tspan></text>
    <text
       xml:space="preserve"
       style="font-size:4.93889px;line-height:5.08px;font-family:sans-serif;text-align:center;letter-spacing:0px;word-spacing:0px;text-anchor:middle;fill:#008000;fill-opacity:1;stroke-width:0.264583"
       x="92.495674"
       y="69.637543"
       id="text2466"><tspan
         sodipodi:role="line"
         style="font-size:4.93889px;text-align:center;text-anchor:middle;fill:#008000;fill-opacity:1;stroke-width:0.264583"
         x="92.495674"
         y="69.637543"
         id="tspan2462">устойчиво</tspan><tspan
         sodipodi:role="line"
         style="font-size:4.93889px;text-align:center;text-anchor:middle;fill:#008000;fill-opacity:1;stroke-width:0.264583"
         x="92.495674"
         y="74.717545"
         id="tspan2464">слабо</tspan></text>
    <path
       id="path5119"
       style="fill:#ff6600;stroke:#000000;stroke-width:0.6;stroke-linecap:round;stroke-linejoin:round;stop-color:#000000"
       d="m 192,106 c 0,1.10457 -0.89543,2 -2,2 -1.10457,0 -2,-0.89543 -2,-2 V 87 c 0,-1.104569 0.89543,-2 2,-2 1.10457,0 2,0.895431 2,2 z"
       sodipodi:nodetypes="csccscc" />
    <g
       id="g1019">
      <path
         style="fill:none;fill-opacity:1;stroke:#000000;stroke-width:0.4;stroke-linecap:round;stroke-linejoin:round;stroke-dasharray:none;stroke-opacity:1;stop-color:#000000"
         d="m 197.99999,104 h 14"
         id="path5112" />
      <path
         style="font-variation-settings:normal;opacity:1;fill:none;fill-opacity:1;stroke:#ff6600;stroke-width:0.600001;stroke-linecap:round;stroke-linejoin:round;stroke-miterlimit:4;stroke-dasharray:none;stroke-dashoffset:0;stroke-opacity:1;stop-color:#000000;stop-opacity:1"
         d="m 197.99999,104 c 0,0 1.95808,-3.01435 3,-4 1.04192,-0.985645 1.98844,-1.170723 3,-2.000001 1.01156,-0.829278 2.35117,-1.950167 3,-3 0.64883,-1.049833 1,-2.999999 1,-2.999999"
         id="path5156"
         sodipodi:nodetypes="czzzc" />
    </g>
    <g
       id="g989">
      <path
         style="fill:none;fill-opacity:1;stroke:#000000;stroke-width:0.4;stroke-linecap:round;stroke-linejoin:round;stroke-dasharray:none;stroke-opacity:1;stop-color:#000000"
         d="m 198,32 h 14"
         id="path5084" />
      <path
         style="font-variation-settings:normal;opacity:1;fill:none;fill-opacity:1;stroke:#ff0000;stroke-width:0.600001;stroke-linecap:round;stroke-linejoin:round;stroke-miterlimit:4;stroke-dasharray:none;stroke-dashoffset:0;stroke-opacity:1;stop-color:#000000;stop-opacity:1"
         d="m 197.99999,31.999999 c 0,0 1.1763,-2.559162 2.00001,-2.999999 0.82371,-0.440837 1.17629,-0.440837 2,0 0.82371,0.440837 1.33333,1.999999 2,2.999999 0.66667,1 1.17629,2.559162 2,2.999999 0.82371,0.440837 1.17629,0.440837 2,0 0.82371,-0.440837 1.33333,-1.999999 2,-2.999999 0.66667,-1 2,-2.999999 2,-2.999999"
         id="path5096"
         sodipodi:nodetypes="czzzzzzc" />
      <path
         style="font-variation-settings:normal;opacity:1;fill:none;fill-opacity:1;stroke:#ff0000;stroke-width:0.2;stroke-linecap:round;stroke-linejoin:round;stroke-miterlimit:4;stroke-dasharray:0.8;stroke-dashoffset:0;stroke-opacity:1;stop-color:#000000;stop-opacity:1"
         d="m 198,35.999999 h 14"
         id="path5902" />
      <path
         style="font-variation-settings:normal;fill:none;fill-opacity:1;stroke:#ff0000;stroke-width:0.2;stroke-linecap:round;stroke-linejoin:round;stroke-miterlimit:4;stroke-dasharray:0.8;stroke-dashoffset:0;stroke-opacity:1;stop-color:#000000"
         d="m 198,28 h 14"
         id="path5902-1" />
    </g>
    <g
       id="g983">
      <path
         style="fill:none;fill-opacity:1;stroke:#000000;stroke-width:0.4;stroke-linecap:round;stroke-linejoin:round;stroke-dasharray:none;stroke-opacity:1;stop-color:#000000"
         d="m 220,24 h 14"
         id="path5088" />
      <path
         style="font-variation-settings:normal;opacity:1;fill:none;fill-opacity:1;stroke:#ff0000;stroke-width:0.600001;stroke-linecap:round;stroke-linejoin:round;stroke-miterlimit:4;stroke-dasharray:none;stroke-dashoffset:0;stroke-opacity:1;stop-color:#000000;stop-opacity:1"
         d="m 220,24 c 0,0 1.67563,-1.819988 2,-2 0.32437,-0.180012 0.67633,-0.214239 1,0 0.32367,0.214239 1.46122,4.153899 2,5 0.53878,0.846101 1.66337,1.832173 3,1 1.33663,-0.832173 3.16863,-8.516722 4,-10 0.83137,-1.483278 1.98353,-1.470796 1.98353,-1.470796"
         id="path5098"
         sodipodi:nodetypes="czzzzzc" />
      <path
         style="font-variation-settings:normal;opacity:1;fill:none;fill-opacity:1;stroke:#ff0000;stroke-width:0.2;stroke-linecap:round;stroke-linejoin:round;stroke-miterlimit:4;stroke-dasharray:0.8;stroke-dashoffset:0;stroke-opacity:1;stop-color:#000000;stop-opacity:1"
         d="m 220,26 14,6"
         id="path6044"
         sodipodi:nodetypes="cc" />
      <path
         style="font-variation-settings:normal;opacity:1;fill:none;fill-opacity:1;stroke:#ff0000;stroke-width:0.2;stroke-linecap:round;stroke-linejoin:round;stroke-miterlimit:4;stroke-dasharray:0.8;stroke-dashoffset:0;stroke-opacity:1;stop-color:#000000;stop-opacity:1"
         d="m 220,22 14,-6"
         id="path6048"
         sodipodi:nodetypes="cc" />
    </g>
    <g
       id="g995">
      <path
         style="fill:none;fill-opacity:1;stroke:#000000;stroke-width:0.4;stroke-linecap:round;stroke-linejoin:round;stroke-dasharray:none;stroke-opacity:1;stop-color:#000000"
         d="m 220,44 h 14"
         id="path5080" />
      <path
         style="font-variation-settings:normal;opacity:1;fill:none;fill-opacity:1;stroke:#800000;stroke-width:0.600001;stroke-linecap:round;stroke-linejoin:round;stroke-miterlimit:4;stroke-dasharray:none;stroke-dashoffset:0;stroke-opacity:1;stop-color:#000000;stop-opacity:1"
         d="m 220,44 c 0,0 1.17629,-2.559164 2,-3.000002 0.82371,-0.440838 0.98076,-0.690056 2,0 1.01924,0.690056 0.58903,4.278557 2,5.000001 1.41097,0.721444 2.9918,-0.429163 4,-0.999998 1.0082,-0.570835 1.16682,-1.864794 2,-2.000001 0.83318,-0.135207 2,1 2,1"
         id="path5094"
         sodipodi:nodetypes="czzzzzc" />
      <path
         style="font-variation-settings:normal;opacity:1;fill:none;fill-opacity:1;stroke:#800000;stroke-width:0.2;stroke-linecap:round;stroke-linejoin:round;stroke-miterlimit:4;stroke-dasharray:0.8;stroke-dashoffset:0;stroke-opacity:1;stop-color:#000000;stop-opacity:1"
         d="m 220,37 14,6"
         id="path6050"
         sodipodi:nodetypes="cc" />
      <path
         style="font-variation-settings:normal;opacity:1;fill:none;fill-opacity:1;stroke:#800000;stroke-width:0.2;stroke-linecap:round;stroke-linejoin:round;stroke-miterlimit:4;stroke-dasharray:0.8;stroke-dashoffset:0;stroke-opacity:1;stop-color:#000000;stop-opacity:1"
         d="m 220,51 14,-6"
         id="path6121"
         sodipodi:nodetypes="cc" />
    </g>
    <g
       id="g1010">
      <path
         style="fill:none;fill-opacity:1;stroke:#000000;stroke-width:0.4;stroke-linecap:round;stroke-linejoin:round;stroke-dasharray:none;stroke-opacity:1;stop-color:#000000"
         d="m 197.99999,71.999999 h 14"
         id="path5104" />
      <path
         style="fill:none;fill-opacity:1;stroke:#00ff00;stroke-width:0.600001;stroke-linecap:round;stroke-linejoin:round;stroke-dasharray:none;stroke-opacity:1;stop-color:#000000"
         d="m 197.99999,72 c 0,0 1.54526,-2.436979 2.59282,-3.468352 1.04756,-1.031372 2.19456,-1.85938 3.40718,-1.531649 1.21262,0.327731 1.31934,1.258682 2.19089,2.347053 0.87155,1.088371 1.86247,1.303468 2.99284,1.556012 1.13037,0.252544 2.826,0.155242 2.826,0.155242"
         id="path5106"
         sodipodi:nodetypes="czzzzc" />
      <path
         style="font-variation-settings:normal;opacity:1;fill:none;fill-opacity:1;stroke:#00ff00;stroke-width:0.2;stroke-linecap:round;stroke-linejoin:round;stroke-miterlimit:4;stroke-dasharray:0.8;stroke-dashoffset:0;stroke-opacity:1;stop-color:#000000;stop-opacity:1"
         d="m 198,71 h 14"
         id="path6334"
         sodipodi:nodetypes="cc" />
    </g>
    <g
       id="g1005">
      <path
         style="fill:none;fill-opacity:1;stroke:#000000;stroke-width:0.4;stroke-linecap:round;stroke-linejoin:round;stroke-dasharray:none;stroke-opacity:1;stop-color:#000000"
         d="m 220,63.999999 h 14"
         id="path5100" />
      <path
         style="fill:none;fill-opacity:1;stroke:#008000;stroke-width:0.600001;stroke-linecap:round;stroke-linejoin:round;stroke-dasharray:none;stroke-opacity:1;stop-color:#000000"
         d="m 220,64 c 0,0 1.54526,-2.436979 2.59282,-3.468352 1.04756,-1.031372 2.19456,-1.85938 3.40718,-1.531649 1.21262,0.327731 1.12845,1.911629 2,3 0.87155,1.088371 1.86963,1.747457 3,2.000001 1.13037,0.252544 3,0 3,0"
         id="path5102"
         sodipodi:nodetypes="czzzzc" />
      <path
         style="font-variation-settings:normal;opacity:1;fill:#000000;fill-opacity:0;stroke:#008000;stroke-width:0.2;stroke-linecap:round;stroke-linejoin:round;stroke-miterlimit:4;stroke-dasharray:0.8;stroke-dashoffset:0;stroke-opacity:1;stop-color:#000000;stop-opacity:1"
         d="m 220,64 h 14"
         id="path6336"
         sodipodi:nodetypes="cc" />
    </g>
    <g
       id="g1000">
      <path
         style="fill:none;fill-opacity:1;stroke:#000000;stroke-width:0.4;stroke-linecap:round;stroke-linejoin:round;stroke-dasharray:none;stroke-opacity:1;stop-color:#000000"
         d="m 198,51.999999 h 14"
         id="path5078" />
      <path
         style="fill:none;fill-opacity:1;stroke:#ff00ff;stroke-width:0.600001;stroke-linecap:round;stroke-linejoin:round;stroke-dasharray:none;stroke-opacity:1;stop-color:#000000"
         d="m 198,52 c 0,0 0.99338,-2.436979 1.66681,-3.468352 0.67343,-1.031372 1.41079,-1.85938 2.19033,-1.531649 0.77954,0.327731 0.72543,1.911629 1.28572,3 0.56028,1.088371 1.2019,1.747457 1.92857,2.000001 0.72666,0.252544 1.92857,0 1.92857,0 2.31443,-0.456736 4.00271,-0.161035 5,0"
         id="path5076"
         sodipodi:nodetypes="czzzzcc" />
      <path
         style="font-variation-settings:normal;opacity:1;fill:#000000;fill-opacity:0;stroke:#ff00ff;stroke-width:0.2;stroke-linecap:round;stroke-linejoin:round;stroke-miterlimit:4;stroke-dasharray:0.8;stroke-dashoffset:0;stroke-opacity:1;stop-color:#000000;stop-opacity:1"
         d="m 198,52 h 14"
         id="path6545"
         sodipodi:nodetypes="cc" />
    </g>
    <g
       id="g1015">
      <path
         style="fill:none;fill-opacity:1;stroke:#000000;stroke-width:0.4;stroke-linecap:round;stroke-linejoin:round;stroke-dasharray:none;stroke-opacity:1;stop-color:#000000"
         d="m 220,81.999999 h 14"
         id="path5108" />
      <path
         style="fill:none;fill-opacity:1;stroke:#00ff00;stroke-width:0.600001;stroke-linecap:round;stroke-linejoin:round;stroke-dasharray:none;stroke-opacity:1;stop-color:#000000"
         d="m 220,82 c 0,0 1.84587,-2.725144 2.59282,-3.468352 0.74695,-0.743208 1.92106,-1.276811 2.6665,-1.587529 0.74544,-0.310717 2.39347,-0.830125 3.48806,-1.07411 1.09459,-0.243985 2.03155,-0.378716 3.27964,-0.549641 1.24808,-0.170926 1.89454,-0.248914 1.89454,-0.248914"
         id="path5110"
         sodipodi:nodetypes="czzzzc" />
      <path
         style="font-variation-settings:normal;opacity:1;fill:none;fill-opacity:1;stroke:#00ff00;stroke-width:0.2;stroke-linecap:round;stroke-linejoin:round;stroke-miterlimit:4;stroke-dasharray:0.8;stroke-dashoffset:0;stroke-opacity:1;stop-color:#000000;stop-opacity:1"
         d="m 220,74 h 14"
         id="path6616"
         sodipodi:nodetypes="cc" />
    </g>
    <text
       xml:space="preserve"
       style="font-size:7.05556px;line-height:7.25714px;font-family:sans-serif;text-align:center;letter-spacing:0px;word-spacing:0px;text-anchor:middle;fill:#000000;fill-opacity:1;stroke-width:0.264583"
       x="180"
       y="51"
       id="text6697"><tspan
         sodipodi:role="line"
         style="font-size:7.05556px;text-align:center;text-anchor:middle;fill:#000000;fill-opacity:1;stroke-width:0.264583"
         x="180"
         y="51"
         id="tspan6695">k<tspan
   style="font-size:65%;baseline-shift:sub;fill:#000000;fill-opacity:1"
   id="tspan6699">опт</tspan></tspan></text>
    <text
       xml:space="preserve"
       style="font-size:7.05556px;line-height:7.25714px;font-family:sans-serif;text-align:center;letter-spacing:0px;word-spacing:0px;text-anchor:middle;fill:#ff0000;fill-opacity:1;stroke-width:0.264583"
       x="180"
       y="31"
       id="text6705"><tspan
         sodipodi:role="line"
         style="font-size:7.05556px;text-align:center;text-anchor:middle;fill:#ff0000;fill-opacity:1;stroke-width:0.264583"
         x="180"
         y="31"
         id="tspan6703">k<tspan
   style="font-size:65%;baseline-shift:sub;fill:#ff0000;fill-opacity:1"
   id="tspan6715">max</tspan></tspan></text>
    <text
       xml:space="preserve"
       style="font-size:7.05556px;line-height:7.25714px;font-family:sans-serif;text-align:center;letter-spacing:0px;word-spacing:0px;text-anchor:middle;fill:#00ff00;fill-opacity:1;stroke-width:0.264583"
       x="180"
       y="71"
       id="text6711"><tspan
         sodipodi:role="line"
         style="font-size:7.05556px;text-align:center;text-anchor:middle;fill:#00ff00;fill-opacity:1;stroke-width:0.264583"
         x="180"
         y="71"
         id="tspan6709">k<tspan
   style="font-size:65%;baseline-shift:sub;fill:#00ff00;fill-opacity:1"
   id="tspan6713">min</tspan></tspan></text>
    <path
       style="fill:none;stroke:#000000;stroke-width:0.600001;stroke-linecap:round;stroke-linejoin:round;marker-end:url(#Arrow1L-6-0-28-2-6-3)"
       d="m 255,60 h 95"
       id="path822"
       sodipodi:nodetypes="cc" />
    <text
       xml:space="preserve"
       style="font-size:7.05556px;line-height:7.25714px;font-family:sans-serif;text-align:center;letter-spacing:0px;word-spacing:0px;text-anchor:middle;fill:#0000ff;fill-opacity:1;stroke-width:0.264583"
       x="360"
       y="62"
       id="text826"><tspan
         sodipodi:role="line"
         style="font-size:7.05556px;text-align:center;text-anchor:middle;fill:#0000ff;fill-opacity:1;stroke-width:0.264583"
         x="360"
         y="62"
         id="tspan824">Re</tspan></text>
    <text
       xml:space="preserve"
       style="font-size:7.05556px;line-height:7.25714px;font-family:sans-serif;text-align:center;letter-spacing:0px;word-spacing:0px;text-anchor:middle;fill:#ff0000;fill-opacity:1;stroke-width:0.264583"
       x="305"
       y="9"
       id="text882"><tspan
         sodipodi:role="line"
         style="font-size:7.05556px;text-align:center;text-anchor:middle;fill:#ff0000;fill-opacity:1;stroke-width:0.264583"
         x="305"
         y="9"
         id="tspan880">Im</tspan></text>
    <g
       id="g1027"
       transform="translate(37,8.000001)">
      <path
         style="fill:none;fill-opacity:1;stroke:#000000;stroke-width:0.4;stroke-linecap:round;stroke-linejoin:round;stroke-dasharray:none;stroke-opacity:1;stop-color:#000000"
         d="m 220,63.999999 h 14"
         id="path1021" />
      <path
         style="fill:none;fill-opacity:1;stroke:#008000;stroke-width:0.600001;stroke-linecap:round;stroke-linejoin:round;stroke-dasharray:none;stroke-opacity:1;stop-color:#000000"
         d="m 220,64 c 0,0 1.54526,-2.436979 2.59282,-3.468352 1.04756,-1.031372 2.19456,-1.85938 3.40718,-1.531649 1.21262,0.327731 1.12845,1.911629 2,3 0.87155,1.088371 1.86963,1.747457 3,2.000001 1.13037,0.252544 3,0 3,0"
         id="path1023"
         sodipodi:nodetypes="czzzzc" />
      <path
         style="font-variation-settings:normal;opacity:1;fill:#000000;fill-opacity:0;stroke:#008000;stroke-width:0.2;stroke-linecap:round;stroke-linejoin:round;stroke-miterlimit:4;stroke-dasharray:0.8;stroke-dashoffset:0;stroke-opacity:1;stop-color:#000000;stop-opacity:1"
         d="m 220,64 h 14"
         id="path1025"
         sodipodi:nodetypes="cc" />
    </g>
    <g
       id="g1037"
       transform="translate(39.00001,-13.999996)">
      <path
         style="fill:none;fill-opacity:1;stroke:#000000;stroke-width:0.4;stroke-linecap:round;stroke-linejoin:round;stroke-dasharray:none;stroke-opacity:1;stop-color:#000000"
         d="m 220,44 h 14"
         id="path1029" />
      <path
         style="font-variation-settings:normal;opacity:1;fill:none;fill-opacity:1;stroke:#800000;stroke-width:0.600001;stroke-linecap:round;stroke-linejoin:round;stroke-miterlimit:4;stroke-dasharray:none;stroke-dashoffset:0;stroke-opacity:1;stop-color:#000000;stop-opacity:1"
         d="m 220,44 c 0,0 1.17629,-2.559164 2,-3.000002 0.82371,-0.440838 0.98076,-0.690056 2,0 1.01924,0.690056 0.58903,4.278557 2,5.000001 1.41097,0.721444 2.9918,-0.429163 4,-0.999998 1.0082,-0.570835 1.16682,-1.864794 2,-2.000001 0.83318,-0.135207 2,1 2,1"
         id="path1031"
         sodipodi:nodetypes="czzzzzc" />
      <path
         style="font-variation-settings:normal;opacity:1;fill:none;fill-opacity:1;stroke:#800000;stroke-width:0.2;stroke-linecap:round;stroke-linejoin:round;stroke-miterlimit:4;stroke-dasharray:0.8;stroke-dashoffset:0;stroke-opacity:1;stop-color:#000000;stop-opacity:1"
         d="m 220,37 14,6"
         id="path1033"
         sodipodi:nodetypes="cc" />
      <path
         style="font-variation-settings:normal;opacity:1;fill:none;fill-opacity:1;stroke:#800000;stroke-width:0.2;stroke-linecap:round;stroke-linejoin:round;stroke-miterlimit:4;stroke-dasharray:0.8;stroke-dashoffset:0;stroke-opacity:1;stop-color:#000000;stop-opacity:1"
         d="m 220,51 14,-6"
         id="path1035"
         sodipodi:nodetypes="cc" />
    </g>
    <g
       id="g1047"
       transform="translate(100,69.000001)">
      <path
         style="fill:none;fill-opacity:1;stroke:#000000;stroke-width:0.4;stroke-linecap:round;stroke-linejoin:round;stroke-dasharray:none;stroke-opacity:1;stop-color:#000000"
         d="m 198,32 h 14"
         id="path1039" />
      <path
         style="font-variation-settings:normal;opacity:1;fill:none;fill-opacity:1;stroke:#ff0000;stroke-width:0.600001;stroke-linecap:round;stroke-linejoin:round;stroke-miterlimit:4;stroke-dasharray:none;stroke-dashoffset:0;stroke-opacity:1;stop-color:#000000;stop-opacity:1"
         d="m 197.99999,31.999999 c 0,0 1.1763,-2.559162 2.00001,-2.999999 0.82371,-0.440837 1.17629,-0.440837 2,0 0.82371,0.440837 1.33333,1.999999 2,2.999999 0.66667,1 1.17629,2.559162 2,2.999999 0.82371,0.440837 1.17629,0.440837 2,0 0.82371,-0.440837 1.33333,-1.999999 2,-2.999999 0.66667,-1 2,-2.999999 2,-2.999999"
         id="path1041"
         sodipodi:nodetypes="czzzzzzc" />
      <path
         style="font-variation-settings:normal;opacity:1;fill:none;fill-opacity:1;stroke:#ff0000;stroke-width:0.2;stroke-linecap:round;stroke-linejoin:round;stroke-miterlimit:4;stroke-dasharray:0.8;stroke-dashoffset:0;stroke-opacity:1;stop-color:#000000;stop-opacity:1"
         d="m 198,35.999999 h 14"
         id="path1043" />
      <path
         style="font-variation-settings:normal;fill:none;fill-opacity:1;stroke:#ff0000;stroke-width:0.2;stroke-linecap:round;stroke-linejoin:round;stroke-miterlimit:4;stroke-dasharray:0.8;stroke-dashoffset:0;stroke-opacity:1;stop-color:#000000"
         d="m 198,28 h 14"
         id="path1045" />
    </g>
    <g
       id="g1053"
       transform="translate(140.00001,-28)">
      <path
         style="fill:none;fill-opacity:1;stroke:#000000;stroke-width:0.4;stroke-linecap:round;stroke-linejoin:round;stroke-dasharray:none;stroke-opacity:1;stop-color:#000000"
         d="m 197.99999,104 h 14"
         id="path1049" />
      <path
         style="font-variation-settings:normal;opacity:1;fill:none;fill-opacity:1;stroke:#ff6600;stroke-width:0.600001;stroke-linecap:round;stroke-linejoin:round;stroke-miterlimit:4;stroke-dasharray:none;stroke-dashoffset:0;stroke-opacity:1;stop-color:#000000;stop-opacity:1"
         d="m 197.99999,104 c 0,0 1.95808,-3.01435 3,-4 1.04192,-0.985645 1.98844,-1.170723 3,-2.000001 1.01156,-0.829278 2.35117,-1.950167 3,-3 0.64883,-1.049833 1,-2.999999 1,-2.999999"
         id="path1051"
         sodipodi:nodetypes="czzzc" />
    </g>
    <g
       id="g1063"
       transform="translate(117,8)">
      <path
         style="fill:none;fill-opacity:1;stroke:#000000;stroke-width:0.4;stroke-linecap:round;stroke-linejoin:round;stroke-dasharray:none;stroke-opacity:1;stop-color:#000000"
         d="m 220,24 h 14"
         id="path1055" />
      <path
         style="font-variation-settings:normal;opacity:1;fill:none;fill-opacity:1;stroke:#ff0000;stroke-width:0.600001;stroke-linecap:round;stroke-linejoin:round;stroke-miterlimit:4;stroke-dasharray:none;stroke-dashoffset:0;stroke-opacity:1;stop-color:#000000;stop-opacity:1"
         d="m 220,24 c 0,0 1.67563,-1.819988 2,-2 0.32437,-0.180012 0.67633,-0.214239 1,0 0.32367,0.214239 1.46122,4.153899 2,5 0.53878,0.846101 1.66337,1.832173 3,1 1.33663,-0.832173 3.16863,-8.516722 4,-10 0.83137,-1.483278 1.98353,-1.470796 1.98353,-1.470796"
         id="path1057"
         sodipodi:nodetypes="czzzzzc" />
      <path
         style="font-variation-settings:normal;opacity:1;fill:none;fill-opacity:1;stroke:#ff0000;stroke-width:0.2;stroke-linecap:round;stroke-linejoin:round;stroke-miterlimit:4;stroke-dasharray:0.8;stroke-dashoffset:0;stroke-opacity:1;stop-color:#000000;stop-opacity:1"
         d="m 220,26 14,6"
         id="path1059"
         sodipodi:nodetypes="cc" />
      <path
         style="font-variation-settings:normal;opacity:1;fill:none;fill-opacity:1;stroke:#ff0000;stroke-width:0.2;stroke-linecap:round;stroke-linejoin:round;stroke-miterlimit:4;stroke-dasharray:0.8;stroke-dashoffset:0;stroke-opacity:1;stop-color:#000000;stop-opacity:1"
         d="m 220,22 14,-6"
         id="path1061"
         sodipodi:nodetypes="cc" />
    </g>
    <path
       id="path1065"
       style="fill:#008000;stroke:#000000;stroke-width:0.6;stroke-linecap:round;stroke-linejoin:round;stop-color:#000000;fill-opacity:1"
       d="m 260,62 c -1.10457,0 -2,-0.89543 -2,-2 0,-1.10457 0.89543,-2 2,-2 l 43,0 c 1.10457,0 2,0.89543 2,2 0,1.10457 -0.89543,2 -2,2 z"
       sodipodi:nodetypes="csccscc" />
    <path
       id="path1453"
       style="fill:#ff6600;fill-opacity:1;stroke:#000000;stroke-width:0.6;stroke-linecap:round;stroke-linejoin:round;stop-color:#000000"
       d="m 307,62 c -1.10457,0 -2,-0.89543 -2,-2 0,-1.10457 0.89543,-2 2,-2 l 38,0 c 1.10457,0 2,0.89543 2,2 0,1.10457 -0.89543,2 -2,2 z"
       sodipodi:nodetypes="csccscc" />
    <path
       style="fill:#000000;fill-opacity:1;stroke:#000000;stroke-width:0.6;stroke-linecap:round;stroke-linejoin:round;stroke-dasharray:none;stop-color:#000000"
       d="m 280.00001,25.000002 v 10"
       id="path1647"
       sodipodi:nodetypes="cc" />
    <path
       style="fill:#000000;fill-opacity:1;stroke:#000000;stroke-width:0.6;stroke-linecap:round;stroke-linejoin:round;stroke-dasharray:none;marker-end:url(#Arrow1L-6-0-28-2-6-3);stop-color:#000000"
       d="m 305,30 -20.99999,2e-6"
       id="path2275"
       sodipodi:nodetypes="cc" />
    <text
       xml:space="preserve"
       style="font-size:4.93889px;line-height:5.08px;font-family:sans-serif;text-align:center;letter-spacing:0px;word-spacing:0px;text-anchor:middle;fill:#000000;fill-opacity:1;stroke-width:0.264583"
       x="285"
       y="19"
       id="text2471"><tspan
         sodipodi:role="line"
         style="font-size:4.93889px;text-align:center;text-anchor:middle;fill:#000000;fill-opacity:1;stroke-width:0.264583"
         x="285"
         y="19"
         id="tspan2469">запас</tspan><tspan
         sodipodi:role="line"
         style="font-size:4.93889px;text-align:center;text-anchor:middle;fill:#000000;fill-opacity:1;stroke-width:0.264583"
         x="285"
         y="24.08"
         id="tspan2473">устойчивости</tspan></text>
    <text
       xml:space="preserve"
       style="font-size:4.93889px;line-height:5.08px;font-family:sans-serif;text-align:center;letter-spacing:0px;word-spacing:0px;text-anchor:middle;fill:#ff0000;fill-opacity:1;stroke-width:0.264583"
       x="335"
       y="100"
       id="text2673"><tspan
         sodipodi:role="line"
         style="font-size:4.93889px;text-align:center;text-anchor:middle;fill:#ff0000;fill-opacity:1;stroke-width:0.264583"
         x="335"
         y="100"
         id="tspan2669">граница</tspan><tspan
         sodipodi:role="line"
         style="font-size:4.93889px;text-align:center;text-anchor:middle;fill:#ff0000;fill-opacity:1;stroke-width:0.264583"
         x="335"
         y="105.08"
         id="tspan2671">устойчивости</tspan></text>
  </g>
</svg>
