<?xml version="1.0" encoding="UTF-8"?>
<!DOCTYPE svg PUBLIC "-//W3C//DTD SVG 1.1//EN" "http://www.w3.org/Graphics/SVG/1.1/DTD/svg11.dtd">
<!-- Creator: CorelDRAW -->
<svg xmlns="http://www.w3.org/2000/svg" xml:space="preserve" width="18.75mm" height="9.6854mm" style="shape-rendering:geometricPrecision; text-rendering:geometricPrecision; image-rendering:optimizeQuality; fill-rule:evenodd; clip-rule:evenodd"
viewBox="0 0 18.75 9.6854"
 xmlns:xlink="http://www.w3.org/1999/xlink">
 <defs>
  <style type="text/css">
   <![CDATA[
    .str0 {stroke:black;stroke-width:0.3307}
    .str1 {stroke:black;stroke-width:0.3307;stroke-linecap:round}
    .fil1 {fill:none}
    .fil0 {fill:white}
    .fil2 {fill:black;fill-rule:nonzero}
   ]]>
  </style>
 </defs>
 <g id="Layer_x0020_1">
  <metadata id="CorelCorpID_0Corel-Layer"/>
  <polygon id="rect8" class="fil0 str0" points="4.6875,6.7075 14.0625,6.7075 14.0625,2.9575 4.6875,2.9575 "/>
  <line id="line12" class="fil1 str0" x1="-0" y1="4.8325" x2="4.6875" y2= "4.8325" />
  <line id="line14" class="fil1 str0" x1="14.0625" y1="4.8325" x2="18.75" y2= "4.8325" />
  <polyline id="path3200" class="fil1 str1" points="13.9723,0.1654 4.6892,9.52 0.9425,9.52 "/>
  <path class="fil2" d="M2.3546 8.5218l0.0469 0.2877c-0.0914,0.0191 -0.1735,0.029 -0.2457,0.029 -0.1186,0 -0.2099,-0.0185 -0.2754,-0.0562 -0.0648,-0.037 -0.1105,-0.0864 -0.137,-0.1475 -0.0266,-0.0605 -0.0402,-0.1889 -0.0402,-0.384l0 -1.1051 -0.2389 0 0 -0.2531 0.2389 0 0 -0.476 0.3242 -0.1951 0 0.6711 0.3272 0 0 0.2531 -0.3272 0 0 1.123c0,0.0932 0.0055,0.1525 0.0166,0.179 0.0118,0.0266 0.0303,0.0476 0.0562,0.0636 0.0259,0.0154 0.063,0.0235 0.1111,0.0235 0.0365,0 0.084,-0.0044 0.1433,-0.013zm0.3056 -1.9046c0,-0.1383 0.0494,-0.2568 0.1476,-0.3543 0.0981,-0.0976 0.216,-0.1464 0.3537,-0.1464 0.1395,0 0.2581,0.0488 0.3562,0.1464 0.0976,0.0975 0.1464,0.216 0.1464,0.3543 0,0.1389 -0.0494,0.2575 -0.1476,0.3556 -0.0982,0.0982 -0.2167,0.1476 -0.355,0.1476 -0.1377,0 -0.2556,-0.0488 -0.3537,-0.1463 -0.0982,-0.0982 -0.1476,-0.2167 -0.1476,-0.3569zm0.197 0c0,0.0846 0.0302,0.1568 0.0895,0.2161 0.0599,0.0599 0.1321,0.0895 0.216,0.0895 0.0834,0 0.155,-0.0296 0.2149,-0.0895 0.0593,-0.0593 0.0895,-0.1315 0.0895,-0.2161 0,-0.0839 -0.0302,-0.1562 -0.0895,-0.2161 -0.0599,-0.0592 -0.1315,-0.0895 -0.2149,-0.0895 -0.0839,0 -0.1561,0.0303 -0.216,0.0895 -0.0593,0.0599 -0.0895,0.1322 -0.0895,0.2161z"/>
 </g>
</svg>
