<?xml version="1.0" encoding="UTF-8" standalone="no"?>
<svg
  xmlns:dc="http://purl.org/dc/elements/1.1/"
  xmlns:cc="http://creativecommons.org/ns#"
  xmlns:rdf="http://www.w3.org/1999/02/22-rdf-syntax-ns#"
  xmlns:svg="http://www.w3.org/2000/svg"
  xmlns="http://www.w3.org/2000/svg"
  xmlns:xlink="http://www.w3.org/1999/xlink"
  id="svg6160"
  version="1.1"
  viewBox="0 0 205.6442 88.0089"
  height="88.0089mm"
  width="205.6442mm">
 <defs
   id="defs6154">
  <linearGradient
    id="linearGradient6450">
   <stop
     id="stop6448"
     offset="0"
     style="stop-color:#b3b3b3;stop-opacity:1" />
   <stop
     id="stop6446"
     offset="1"
     style="stop-color:#000000;stop-opacity:1;" />
  </linearGradient>
  <linearGradient
    id="linearGradient6409">
   <stop
     style="stop-color:#008000;stop-opacity:1"
     offset="0"
     id="stop6405" />
   <stop
     style="stop-color:#005e00;stop-opacity:1"
     offset="1"
     id="stop6407" />
  </linearGradient>
  <linearGradient
    id="linearGradient6393">
   <stop
     id="stop6389"
     offset="0"
     style="stop-color:#0000ff;stop-opacity:1" />
   <stop
     id="stop6391"
     offset="1"
     style="stop-color:#000080;stop-opacity:1" />
  </linearGradient>
  <linearGradient
    gradientUnits="userSpaceOnUse"
    y2="134.9624"
    x2="199.2048"
    y1="134.4278"
    x1="35.66589"
    id="linearGradient6395"
    xlink:href="#linearGradient6393" />
  <linearGradient
    gradientUnits="userSpaceOnUse"
    y2="181.9297"
    x2="199.1025"
    y1="179.6838"
    x1="36.76205"
    id="linearGradient6403"
    xlink:href="#linearGradient6409" />
  <radialGradient
    gradientUnits="userSpaceOnUse"
    gradientTransform="matrix(0.4887506,0.6562003,-1.039253,0.7740552,171.6988,7.80723)"
    r="5.12544"
    fy="146.2876"
    fx="38.47254"
    cy="146.2876"
    cx="38.47254"
    id="radialGradient6440"
    xlink:href="#linearGradient6450" />
 </defs>
 <metadata
   id="metadata6157">
  <rdf:RDF>
   <cc:Work
     rdf:about="">
    <dc:format>image/svg+xml</dc:format>
    <dc:type
      rdf:resource="http://purl.org/dc/dcmitype/StillImage" />
   </cc:Work>
  </rdf:RDF>
 </metadata>
 <g
   transform="translate(-3.088814,-109.8037)"
   id="layer1">
  <rect
    y="109.8037"
    x="3.088814"
    height="88.0089"
    width="205.6442"
    id="rect6426"
style="opacity:1;fill:#ffffff;fill-opacity:1;stroke-width:2;stroke-opacity:1"/>
  <path
    d="m 63.48828,122.668 -26.22851,23.2519 2.80859,3.168 25.02539,-22.1856 H 198.9375 v -4.2343 z"/>
  <path
    d="M 40.16016,146.0078 37.16602,149 63.41406,175.248 H 199.7676 v -4.2343 H 65.16797 Z"
    style="fill:url(#linearGradient6403);fill-opacity:1"/>
  <path
    d="m 204.0629,124.7855 a 5,5 0 0 1 -5,5 5,5 0 0 1 -5,-5 5,5 0 0 1 5,-5 5,5 0 0 1 5,5 z m 0.8301,48.3457 a 5,5 0 0 1 -5,5 5,5 0 0 1 -5,-5 5,5 0 0 1 5,-5 5,5 0 0 1 5,5 z"
    style="fill:#ffffff;fill-opacity:1;stroke:#000000;stroke-width:1;"/>
  <path
    d="m 44.90762,147.5037 a 5,5 0 0 1 -5,5 5,5 0 0 1 -5,-5 5,5 0 0 1 5,-5 5,5 0 0 1 5,5 z"
    style="fill:url(#radialGradient6440);fill-opacity:1;stroke-width:0.2645833" />

  <path
    d="M 199.7172,195.8126 V 181.781 m -7.0158,7.0158 h 14.0316"
    style="opacity:1fill:#005e00;fill-opacity:1;stroke:#ff0000;stroke-width:2;"/>
  <path
style="opacity:1;fill:#005e00;fill-opacity:1;stroke:#0000ff;stroke-width:2;stroke-opacity:1"
    d="m 190.5632,112.8923 h 14.0316" />
<g style="font-size:9.5249987px;font-family:'Times New Roman';-inkscape-font-specification:'Times New Roman';text-anchor:middle;fill:#000000;fill-opacity:1">
  <text
    id="text2965"><tspan
     x="128.3639"
     y="118.1103">Хромель</tspan><tspan
     y="184.5698"
     x="127.9215"
>Алюмель</tspan><tspan
     style="text-anchor:end"
     x="31.54766"
     y="150.5513">300 °C</tspan><tspan
     style="text-anchor:end"
     x="202.7728"
     y="157.4126">12,2 мВ</tspan><tspan
     y="145.8741"
     x="201.2638"
     style="text-anchor:end">0 °C</tspan></text>
 </g>
 </g>
</svg>
