<?xml version="1.0" encoding="UTF-8" standalone="no"?>
<!-- Created with Inkscape (http://www.inkscape.org/) -->

<svg
   width="297mm"
   height="210mm"
   viewBox="0 0 297 210"
   version="1.1"
   id="svg5"
   inkscape:version="1.2.1 (2ed6d7ae0b, 2022-08-22, custom)"
   sodipodi:docname="08 Нелинейные-звенья.svg"
   inkscape:export-filename="08 Нелинейные-звенья.png"
   inkscape:export-xdpi="299"
   inkscape:export-ydpi="299"
   xmlns:inkscape="http://www.inkscape.org/namespaces/inkscape"
   xmlns:sodipodi="http://sodipodi.sourceforge.net/DTD/sodipodi-0.dtd"
   xmlns="http://www.w3.org/2000/svg"
   xmlns:svg="http://www.w3.org/2000/svg">
  <sodipodi:namedview
     id="namedview7"
     pagecolor="#ffffff"
     bordercolor="#666666"
     borderopacity="1.0"
     inkscape:showpageshadow="2"
     inkscape:pageopacity="0.0"
     inkscape:pagecheckerboard="0"
     inkscape:deskcolor="#d1d1d1"
     inkscape:document-units="mm"
     showgrid="true"
     inkscape:zoom="1.104894"
     inkscape:cx="533.08281"
     inkscape:cy="416.78206"
     inkscape:window-width="1918"
     inkscape:window-height="1038"
     inkscape:window-x="0"
     inkscape:window-y="20"
     inkscape:window-maximized="1"
     inkscape:current-layer="layer1"
     showguides="true">
    <inkscape:grid
       type="xygrid"
       id="grid837"
       units="mm"
       spacingx="1"
       spacingy="1" />
  </sodipodi:namedview>
  <defs
     id="defs2">
    <marker
       style="overflow:visible"
       id="marker1783-1"
       refX="0"
       refY="0"
       orient="auto-start-reverse"
       inkscape:stockid="Arrow1L"
       markerWidth="8.75"
       markerHeight="5"
       viewBox="0 0 8.75 5"
       inkscape:isstock="true"
       inkscape:collect="always"
       preserveAspectRatio="xMidYMid">
      <path
         style="fill:context-stroke;fill-rule:evenodd;stroke:none"
         d="M 0,0 5,-5 -12.5,0 5,5 Z"
         id="path1781-29"
         transform="scale(-0.5)" />
    </marker>
    <marker
       style="overflow:visible"
       id="marker1783-1-3"
       refX="0"
       refY="0"
       orient="auto-start-reverse"
       inkscape:stockid="Arrow1L"
       markerWidth="8.75"
       markerHeight="5"
       viewBox="0 0 8.75 5"
       inkscape:isstock="true"
       inkscape:collect="always"
       preserveAspectRatio="xMidYMid">
      <path
         style="fill:context-stroke;fill-rule:evenodd;stroke:none"
         d="M 0,0 5,-5 -12.5,0 5,5 Z"
         id="path1781-29-6"
         transform="scale(-0.5)" />
    </marker>
  </defs>
  <g
     inkscape:label="Слой 1"
     inkscape:groupmode="layer"
     id="layer1">
    <text
       xml:space="preserve"
       style="font-size:8.46667px;line-height:8px;font-family:sans-serif;text-align:center;letter-spacing:0px;word-spacing:0px;text-anchor:middle;stroke-width:0.264583;fill:#000000"
       x="30"
       y="35"
       id="text1977-7-0-56-78-0-0"><tspan
         sodipodi:role="line"
         style="font-size:8.46667px;text-align:center;text-anchor:middle;stroke-width:0.264583;fill:#000000"
         x="30"
         y="35"
         id="tspan3080-1">Выход</tspan></text>
    <text
       xml:space="preserve"
       style="font-size:8.46667px;line-height:8px;font-family:sans-serif;text-align:center;letter-spacing:0px;word-spacing:0px;text-anchor:middle;stroke-width:0.264583;fill:#000000"
       x="155"
       y="165"
       id="text1977-7-0-56-78-0-0-5"><tspan
         sodipodi:role="line"
         style="font-size:8.46667px;text-align:center;text-anchor:middle;stroke-width:0.264583;fill:#000000"
         x="155"
         y="165"
         id="tspan3080-1-3">Вход</tspan></text>
    <path
       style="fill:#000000;stroke:#000000;stroke-width:0.600001;stroke-linecap:round;stroke-linejoin:round;stroke-dasharray:none;marker-end:url(#marker1783-1)"
       d="M 30,165 V 40"
       id="path1456-3"
       sodipodi:nodetypes="cc" />
    <path
       style="fill:#000000;stroke:#000000;stroke-width:0.600001;stroke-linecap:round;stroke-linejoin:round;stroke-dasharray:none;marker-end:url(#marker1783-1-3)"
       d="M 30,165 H 140"
       id="path1456-3-7"
       sodipodi:nodetypes="cc" />
    <path
       style="fill:none;stroke:#000000;stroke-width:1.5;stroke-linecap:round;stroke-linejoin:round;stroke-opacity:1;stroke-dasharray:none"
       d="m 30,165 c 0,0 15.29491,-0.3589 25,-5 9.70509,-4.6411 20.174415,-12.59419 29.999998,-25 C 94.825581,122.59419 105.08257,101.99471 110,84.999998 c 4.91743,-16.994715 5,-50 5,-50"
       id="path414"
       sodipodi:nodetypes="czzzc" />
    <path
       style="fill:none;stroke:#000000;stroke-width:1.5;stroke-linecap:round;stroke-linejoin:round;stroke-opacity:1;stroke-dasharray:none"
       d="m 30,165 c 0,0 4.355429,-18.91536 9.999999,-30 5.64457,-11.08464 14.471687,-26.5258 25,-35 C 75.528312,91.5258 85.823206,89.403166 100,84.999998 114.17679,80.59683 150,75 150,75"
       id="path416"
       sodipodi:nodetypes="czzzc" />
    <path
       style="fill:none;stroke:#000000;stroke-width:1.5;stroke-linecap:round;stroke-linejoin:round;stroke-opacity:1;stroke-dasharray:none"
       d="m 30,120 c 0,0 7.378382,-36.212201 14.999999,-45 7.621617,-8.787799 9.981515,-12.095652 20,-10.000001 10.018485,2.095651 16.572604,18.360351 25,30 C 98.427395,106.63965 103.88039,130.2014 115,135 c 11.11961,4.7986 17.1806,0.97242 25,-5 7.8194,-5.97242 15,-30 15,-30"
       id="path418"
       sodipodi:nodetypes="czzzzzc" />
    <path
       style="fill:none;stroke:#0000ff;stroke-width:1.5;stroke-linecap:round;stroke-linejoin:round;stroke-opacity:1;stroke-dasharray:none"
       d="m 39.999999,39.999999 c 0,0 6.951425,39.816965 15.000001,55 C 63.048576,110.18303 72.870774,121.51416 84.999998,130 97.129222,138.48584 113.22686,141.84337 125,145 c 11.77314,3.15663 30,5 30,5"
       id="path412"
       sodipodi:nodetypes="czzzc" />
  </g>
</svg>
